<svg width="322" height="427" viewBox="0 0 322 427" fill="none" xmlns="http://www.w3.org/2000/svg">
<path d="M0 102C0 74.3858 22.3858 52 50 52H272C299.614 52 322 74.3858 322 102V324C322 351.614 299.614 374 272 374H50C22.3858 374 0 351.614 0 324V102Z" fill="#51A2FF"/>
<path d="M222.964 89.4824C234.854 89.4827 244.493 99.1215 244.493 111.012L244.493 299.94C244.493 310.789 240.586 320.165 232.872 327.879C225.158 335.593 215.782 339.5 204.934 339.5H142.214C129.884 339.5 118.557 336.499 108.311 330.472L108.297 330.464L108.284 330.456C98.1171 324.356 89.9587 316.261 83.8506 306.2L83.8379 306.18L83.8262 306.158C77.802 295.917 74.7979 284.648 74.7979 272.426L74.7979 222.865C74.7979 210.535 77.7988 199.208 83.8262 188.962L83.834 188.948L83.8418 188.936C89.9516 178.753 98.1196 170.643 108.311 164.648C118.554 158.509 129.881 155.449 142.214 155.449H166.396C178.286 155.449 187.926 165.089 187.926 176.979C187.926 188.87 178.286 198.509 166.396 198.509H142.214C135.754 198.509 130.243 200.756 125.516 205.377L125.035 205.857C120.224 210.669 117.857 216.386 117.857 223.207V272.084C117.857 278.776 120.213 284.441 125.035 289.263C129.857 294.085 135.522 296.44 142.214 296.44H154.934C180.615 296.44 201.434 275.622 201.434 249.94L201.434 111.013C201.434 99.1221 211.073 89.4824 222.964 89.4824Z" fill="white" stroke="white" stroke-width="7"/>
<circle cx="164.5" cy="117.5" r="24.5" transform="rotate(-90 164.5 117.5)" fill="white"/>
</svg>
